HIERARCHY
ROOT RootJoint
{
    OFFSET   0.000000   0.000000   0.000000
    CHANNELS 6 Xposition Yposition Zposition Xrotation Yrotation Zrotation
    JOINT pelvis_lowerback
    {
        OFFSET   0.000000   0.093605   0.000000
        CHANNELS 3 Xrotation Yrotation Zrotation
        JOINT lowerback_torso
        {
            OFFSET   0.000000   0.100000   0.000000
            CHANNELS 3 Xrotation Yrotation Zrotation
            JOINT torso_head
            {
                OFFSET   0.000000   0.282350   0.000000
                CHANNELS 3 Xrotation Yrotation Zrotation
                End Site
                {
                    OFFSET   0.000000   0.192650   0.000000
                }
            }
            JOINT rTorso_Clavicle
            {
                OFFSET  -0.001000   0.157500   0.000000
                CHANNELS 3 Xrotation Yrotation Zrotation
                JOINT rShoulder
                {
                    OFFSET  -0.117647   0.000000   0.000000
                    CHANNELS 3 Xrotation Yrotation Zrotation
                    JOINT rElbow
                    {
                        OFFSET  -0.245000   0.000000   0.000000
                        CHANNELS 3 Xrotation Yrotation Zrotation
                        JOINT rWrist
                        {
                            OFFSET  -0.240000   0.000000   0.000000
                            CHANNELS 3 Xrotation Yrotation Zrotation
                            End Site
                            {
                                OFFSET  -0.116353  -0.002500   0.000000
                            }
                        }
                    }
                }
            }
            JOINT lTorso_Clavicle
            {
                OFFSET   0.001000   0.157500   0.000000
                CHANNELS 3 Xrotation Yrotation Zrotation
                JOINT lShoulder
                {
                    OFFSET   0.117647   0.000000   0.000000
                    CHANNELS 3 Xrotation Yrotation Zrotation
                    JOINT lElbow
                    {
                        OFFSET   0.245000   0.000000   0.000000
                        CHANNELS 3 Xrotation Yrotation Zrotation
                        JOINT lWrist
                        {
                            OFFSET   0.240000   0.000000   0.000000
                            CHANNELS 3 Xrotation Yrotation Zrotation
                            End Site
                            {
                                OFFSET   0.116353  -0.002500   0.000000
                            }
                        }
                    }
                }
            }
        }
    }
    JOINT rHip
    {
        OFFSET  -0.100000  -0.051395   0.000000
        CHANNELS 3 Xrotation Yrotation Zrotation
        JOINT rKnee
        {
            OFFSET   0.000000  -0.410000   0.000000
            CHANNELS 3 Xrotation Yrotation Zrotation
            JOINT rAnkle
            {
                OFFSET   0.000000  -0.390000   0.000000
                CHANNELS 3 Xrotation Yrotation Zrotation
                JOINT rToeJoint
                {
                    OFFSET   0.000000  -0.050000   0.130000
                    CHANNELS 3 Xrotation Yrotation Zrotation
                    End Site
                    {
                        OFFSET  -0.010000   0.002000   0.060000
                    }
                }
            }
        }
    }
    JOINT lHip
    {
        OFFSET   0.100000  -0.051395   0.000000
        CHANNELS 3 Xrotation Yrotation Zrotation
        JOINT lKnee
        {
            OFFSET   0.000000  -0.410000   0.000000
            CHANNELS 3 Xrotation Yrotation Zrotation
            JOINT lAnkle
            {
                OFFSET   0.000000  -0.390000   0.000000
                CHANNELS 3 Xrotation Yrotation Zrotation
                JOINT lToeJoint
                {
                    OFFSET   0.000000  -0.050000   0.130000
                    CHANNELS 3 Xrotation Yrotation Zrotation
                    End Site
                    {
                        OFFSET   0.010000   0.002000   0.060000
                    }
                }
            }
        }
    }
}
MOTION
Frames: 17
Frame Time:   0.008333
 -2.376719   0.925631   3.975860   0.000000   0.000000   0.000000   0.000000   0.000000   0.000000   0.000000   0.000000   0.000000   0.000000   0.000000   0.000000   0.000000   0.000000   0.000000   0.000000   0.000000   0.000000   0.000000   0.000000   0.000000   0.000000   0.000000   0.000000   0.000000   0.000000   0.000000   0.000000   0.000000   0.000000   0.000000   0.000000   0.000000   0.000000   0.000000   0.000000   0.000000   0.000000   0.000000   0.000000   0.000000   0.000000   0.000000   0.000000   0.000000   0.000000   0.000000   0.000000   0.000000   0.000000   0.000000   0.000000   0.000000   0.000000   0.000000   0.000000   0.000000   0.000000   0.000000   0.000000
 -2.376495   0.926382   3.976247  -0.143661   0.062804   0.023286   0.003115   0.025570  -0.001911   0.199620  -0.150087   0.009074  -0.093582   0.163803   0.087602   0.272601  -0.455742   0.603822   0.586426   0.163686   1.961622   0.034275   1.504056  -0.012377   0.091682  -0.445274  -3.237025   0.277963   0.279060  -0.641413   0.672766   0.145243  -1.973964   0.028563  -1.260728   0.011352   0.094878   0.244969   3.267744  -0.003360   0.080507  -0.207542   0.728058   0.001178   0.000902  -0.786609  -0.307310   0.022502  -0.176085  -0.000247   0.000250  -0.053000  -0.096319   0.093377   0.844243  -0.000862  -0.000239  -0.967438   0.237440   0.123098   0.405663  -0.000843   0.000723
 -2.376183   0.927630   3.976928  -0.324584   0.130490   0.043783  -0.031099   0.043789   0.014321   0.404277  -0.305380   0.031142  -0.163779   0.320876   0.180263   0.540921  -0.882799   1.987662   1.151011   0.372460   4.550080   0.079329   2.956169  -0.020470   0.226406  -0.455176  -5.746772   0.553067   0.531223  -2.076846   1.336338   0.242593  -4.591247   0.065653  -2.472901   0.019119   0.236055   0.156672   5.786700   0.058012   0.156318  -0.554429   1.517728   0.003225   0.001646  -1.521678  -0.598619   0.038105  -0.380334  -0.000752   0.000457  -0.035637  -0.183543   0.300363   1.751216  -0.002498  -0.000287  -1.872446   0.461440   0.243049   0.733800  -0.001657   0.001176
 -2.375823   0.928918   3.977811  -0.494693   0.192798   0.059341  -0.104424   0.057126   0.044096   0.569924  -0.454961   0.063233  -0.230997   0.467349   0.270079   0.803337  -1.265253   3.840510   1.692662   0.612618   7.553116   0.123167   4.315492  -0.024809   0.363408  -0.357434  -7.333004   0.816731   0.745338  -3.980585   1.990913   0.294528  -7.628957   0.101544  -3.608763   0.023789   0.380576  -0.018158   7.375107   0.143144   0.223826  -1.008058   2.281533   0.005553   0.002039  -2.206896  -0.872429   0.048212  -0.572767  -0.001324   0.000598   0.015341  -0.261339   0.605461   2.626438  -0.004453  -0.000211  -2.716827   0.670436   0.359140   1.029068  -0.002435   0.001462
 -2.375436   0.929912   3.978830  -0.646796   0.245201   0.070441  -0.206543   0.066978   0.083538   0.696931  -0.597401   0.103303  -0.298587   0.603952   0.355266   1.063921  -1.611491   5.952693   2.214740   0.881568  10.834749   0.160519   5.582465  -0.026608   0.491514  -0.245707  -8.215513   1.069978   0.930898  -6.136861   2.640372   0.302843 -10.946173   0.131983  -4.669150   0.026356   0.518806  -0.208788   8.263617   0.238232   0.283758  -1.544447   3.004335   0.007814   0.002115  -2.846670  -1.129517   0.053718  -0.755084  -0.001893   0.000695   0.086186  -0.331166   0.990767   3.455143  -0.006432  -0.000075  -3.505607   0.865234   0.471208   1.293589  -0.003105   0.001611
 -2.375040   0.930367   3.979934  -0.782547   0.284951   0.077921  -0.327883   0.073880   0.130266   0.793610  -0.732661   0.149861  -0.365651   0.731381   0.435333   1.324685  -1.928911   8.184753   2.718472   1.177167  14.301615   0.189459   6.761036  -0.026783   0.606360  -0.151417  -8.615906   1.313854   1.095776  -8.404173   3.285889   0.269338 -14.447444   0.155448  -5.657230   0.027565   0.646629  -0.389427   8.677914   0.337440   0.337208  -2.144018   3.684638   0.009820   0.001949  -3.444209  -1.370654   0.055411  -0.927163  -0.002409   0.000761   0.170696  -0.394210   1.439486   4.236524  -0.008257   0.000078  -4.242558   1.046654   0.579099   1.531021  -0.003637   0.001655
 -2.374656   0.930099   3.981080  -0.905069   0.310822   0.083529  -0.460616   0.078332   0.180454   0.868357  -0.860724   0.197096  -0.431145   0.850207   0.511633   1.586548  -2.222421  10.447373   3.203823   1.498065  17.892214   0.209868   7.856262  -0.025982   0.706950  -0.085701  -8.699618   1.549818   1.245311 -10.706383   3.917146   0.196134 -18.021224   0.171699  -6.577173   0.027856   0.762772  -0.550922   8.761423   0.437339   0.385150  -2.789989   4.323676   0.011472   0.001616  -4.002337  -1.596642   0.053951  -1.088787  -0.002842   0.000805   0.264836  -0.451442   1.936945   4.972357  -0.009837   0.000223  -4.931030   1.215478   0.682674   1.744905  -0.004028   0.001624
 -2.374359   0.928423   3.981678  -0.788957   0.256047   0.083315  -0.730692   0.107089   0.247427   0.905240  -0.964038   0.204275  -0.689114   0.845982   0.544346   1.882776  -2.315342  12.055771   3.786275   1.801025  21.520936   0.227682   9.102356  -0.028552   0.663218  -0.158377  -7.750965   1.821207   1.359176 -12.316458   4.197328   0.181783 -21.555496   0.180483  -7.533393   0.026158   0.740504  -0.681406   7.863501   0.221253   0.212000  -3.369958   4.849768   0.011758  -0.000083  -4.263967  -1.902029   0.259366  -1.001125  -0.001975   0.000237   0.161932  -0.372605   2.393254   5.202589  -0.008778   0.000342  -5.390488   1.423959   0.806061   1.921837  -0.004093   0.001704
 -2.374117   0.925530   3.981946  -0.651010   0.192677   0.080929  -0.942396   0.139507   0.309097   0.933864  -1.047901   0.212128  -0.947761   0.835491   0.566570   2.141047  -2.336974  13.421784   4.298718   2.157340  24.824839   0.233164  10.285537  -0.030355   0.640031  -0.144079  -6.792974   2.060964   1.427104 -13.650910   4.448145   0.135654 -24.747164   0.180290  -8.435436   0.024710   0.712306  -0.840044   7.022070  -0.028781   0.037994  -3.889760   5.302334   0.011373  -0.001295  -4.505464  -2.191107   0.449470  -0.896996  -0.001268  -0.000294  -0.002768  -0.297363   2.804645   5.325055  -0.007457   0.000345  -5.823871   1.618365   0.923383   2.082112  -0.003983   0.001697
 -2.373904   0.921528   3.982019  -0.517024   0.131984   0.076769  -1.106913   0.177492   0.368375   0.973375  -1.116521   0.224965  -1.186808   0.825038   0.584658   2.362429  -2.316098  14.603239   4.744612   2.542461  27.840916   0.230235  11.402829  -0.031357   0.630952  -0.064318  -5.999015   2.270706   1.461480 -14.783403   4.671156   0.065428 -27.645612   0.174409  -9.285086   0.023287   0.691024  -1.027615   6.373508  -0.273259  -0.123225  -4.355294   5.709899   0.010673  -0.002083  -4.730897  -2.461604   0.625753  -0.801284  -0.000764  -0.000654  -0.202148  -0.229829   3.171514   5.408158  -0.006227   0.000318  -6.230343   1.798444   1.034264   2.226587  -0.003755   0.001635
 -2.373708   0.916498   3.981984  -0.390693   0.077815   0.071325  -1.237863   0.220633   0.427158   1.021744  -1.172254   0.242827  -1.405702   0.815180   0.600631   2.553129  -2.271084  15.635396   5.132028   2.938569  30.604811   0.221745  12.454356  -0.031612   0.630036   0.058093  -5.357054   2.455914   1.476771 -15.757535   4.869925  -0.017767 -30.291878   0.165008 -10.083161   0.021750   0.674558  -1.233815   5.889752  -0.501275  -0.272329  -4.771654   6.084675   0.009827  -0.002559  -4.941024  -2.714422   0.789362  -0.713150  -0.000409  -0.000883  -0.422562  -0.169091   3.495458   5.468455  -0.005147   0.000284  -6.610707   1.965297   1.138839   2.359034  -0.003465   0.001548
 -2.373479   0.916826   3.982447  -0.402821   0.051434   0.174684  -1.339493   0.261882   0.408467   1.115267  -1.222266   0.230117  -1.594723   0.805769   0.613979   2.730990  -2.214693  16.906856   5.474115   3.325241  33.247715   0.212602  13.413997  -0.030757   0.624236   0.093946  -4.882096   2.621974   1.480916 -16.957272   5.047391  -0.106259 -32.812203   0.155763 -10.809513   0.019737   0.651951  -1.345381   5.577850  -0.688061  -0.217377  -4.931155   6.556885   0.008074  -0.002105  -5.186381  -2.719825   1.205105  -0.640020  -0.000557  -0.000708  -0.652088  -0.208639   3.375757   5.984765  -0.004068   0.000029  -6.517068   1.996972   1.050140   2.593084  -0.002580   0.001188
 -2.373319   0.917161   3.983069  -0.381033   0.059114   0.297220  -1.474598   0.300400   0.385406   1.172799  -1.268052   0.210050  -1.775990   0.796752   0.622006   2.910081  -2.172180  17.942619   5.784000   3.704704  35.735818   0.200528  14.327518  -0.029544   0.619588   0.187235  -4.245152   2.789103   1.496835 -17.918628   5.219078  -0.192779 -35.180673   0.144766 -11.500791   0.017514   0.632021  -1.504269   5.107318  -0.842065  -0.292079  -5.098472   6.907587   0.006552  -0.001989  -5.405045  -2.886448   1.347032  -0.540816  -0.000531  -0.000782  -0.798768  -0.137359   3.242512   6.313146  -0.003199   0.000283  -6.694752   2.149734   1.123974   2.746460  -0.002134   0.001278
 -2.373293   0.917510   3.983554  -0.324377  -0.010337   0.385470  -1.552474   0.397585   0.347237   1.197439  -1.273517   0.272551  -1.962528   0.721230   0.582847   3.054304  -2.104566  18.451788   6.093556   4.094439  37.716199   0.183155  15.245039  -0.029026   0.570704   0.360527  -2.828016   2.981338   1.511849 -18.427408   5.271710  -0.217510 -37.228240   0.135796 -12.411475   0.015222   0.535330  -1.626280   4.093267  -1.001595  -0.401932  -5.215898   7.157800   0.005247  -0.002037  -5.699758  -3.002894   1.348497  -0.337850  -0.000394  -0.001163  -0.889171  -0.036159   3.151785   6.472137  -0.002549   0.000278  -6.877223   2.325221   1.201749   2.848715  -0.001761   0.001215
 -2.373408   0.917844   3.983886  -0.224170  -0.093726   0.452590  -1.607994   0.499893   0.319046   1.213091  -1.265856   0.330867  -2.136590   0.648691   0.551359   3.150472  -2.021571  18.620589   6.353338   4.468092  39.348346   0.162678  16.112066  -0.028058   0.530548   0.589904  -1.693856   3.142762   1.514482 -18.643022   5.307932  -0.241783 -38.961411   0.123082 -13.274269   0.013192   0.446802  -1.833228   3.323997  -1.181576  -0.508305  -5.301236   7.335914   0.004183  -0.001954  -5.996285  -3.112634   1.346691  -0.157359  -0.000306  -0.001410  -0.990066   0.054553   3.090335   6.554545  -0.002041   0.000230  -7.083075   2.487838   1.279217   2.940830  -0.001461   0.001116
 -2.373671   0.918156   3.984103  -0.094566  -0.176401   0.503099  -1.640326   0.599130   0.293763   1.227712  -1.254330   0.378127  -2.297049   0.581053   0.524822   3.210276  -1.932881  18.560488   6.572493   4.820480  40.713401   0.141617  16.927170  -0.026740   0.494845   0.843463  -0.905863   3.278744   1.507454 -18.654494   5.331720  -0.262368 -40.441360   0.108937 -14.083216   0.011451   0.365100  -2.062608   2.847774  -1.375421  -0.608934  -5.357767   7.466862   0.003322  -0.001789  -6.283401  -3.216599   1.345715   0.005768  -0.000258  -0.001541  -1.101029   0.135209   3.055074   6.585493  -0.001637   0.000184  -7.299261   2.638023   1.355737   3.023503  -0.001221   0.001006
 -2.374076   0.918444   3.984241   0.054598  -0.253012   0.540345  -1.651602   0.692794   0.266816   1.245804  -1.242403   0.413534  -2.444301   0.517996   0.500933   3.245345  -1.844837  18.346251   6.760444   5.148625  41.870227   0.121442  17.690647  -0.025190   0.461806   1.101535  -0.393046   3.395118   1.495489 -18.525654   5.346434  -0.278213 -41.719306   0.094849 -14.839824   0.009972   0.288501  -2.293730   2.604532  -1.577418  -0.703796  -5.389068   7.565923   0.002632  -0.001589  -6.556959  -3.314899   1.346040   0.154128  -0.000237  -0.001584  -1.218549   0.207059   3.042681   6.579626  -0.001308   0.000147  -7.518484   2.776808   1.430797   3.098257  -0.001028   0.000897
